<?xml version="1.0" standalone="no"?>
<!DOCTYPE svg PUBLIC "-//W3C//DTD SVG 20010904//EN"
 "http://www.w3.org/TR/2001/REC-SVG-20010904/DTD/svg10.dtd">
<svg version="1.0" xmlns="http://www.w3.org/2000/svg"
 width="1500.000000pt" height="500.000000pt" viewBox="0 0 1500.000000 500.000000"
 preserveAspectRatio="xMidYMid meet">
<metadata>
Created by potrace 1.15, written by Peter Selinger 2001-2017
</metadata>
<g transform="translate(0.000000,500.000000) scale(0.100000,-0.100000)"
fill="#000000" stroke="none">
<path d="M2755 3589 c-179 -26 -340 -128 -440 -279 -96 -145 -108 -228 -102
-697 5 -381 8 -406 66 -525 61 -124 209 -256 343 -306 190 -71 445 -46 608 59
122 79 228 214 265 339 34 118 44 713 14 910 -25 169 -169 356 -339 438 -127
62 -266 83 -415 61z m261 -349 c90 -44 151 -123 172 -226 18 -83 25 -396 13
-559 -9 -135 -14 -156 -41 -212 -101 -205 -370 -246 -531 -81 -54 56 -69 87
-85 177 -16 91 -19 531 -4 635 23 154 104 253 241 291 75 21 159 12 235 -25z"/>
<path d="M1790 2938 c0 -390 -4 -657 -10 -678 -43 -156 -228 -244 -372 -178
-30 14 -71 42 -92 63 -21 21 -43 34 -51 31 -11 -4 -217 -150 -244 -172 -2 -2
15 -28 37 -57 104 -139 286 -214 492 -204 214 10 412 134 500 312 58 117 60
136 60 863 l0 662 -160 0 -160 0 0 -642z"/>
<path d="M3640 2665 l0 -915 160 0 160 0 0 390 0 390 330 0 330 0 0 -390 0
-390 160 0 160 0 0 915 0 915 -160 0 -160 0 0 -380 0 -380 -330 0 -330 0 0
380 0 380 -160 0 -160 0 0 -915z"/>
<path d="M5110 2665 l0 -915 160 0 160 0 0 607 0 607 386 -607 386 -607 149 0
149 0 0 915 0 915 -160 0 -160 0 -2 -602 -3 -603 -384 603 -383 602 -149 0
-149 0 0 -915z"/>
<path d="M6670 2664 l0 -916 378 5 c252 3 394 9 427 17 121 30 275 124 347
212 135 165 158 269 158 707 0 264 -9 377 -35 456 -47 143 -186 304 -315 367
-131 63 -173 68 -589 68 l-371 0 0 -916z m813 847 c92 -24 146 -50 212 -104
96 -78 177 -197 212 -312 16 -53 18 -100 18 -410 0 -239 -4 -369 -12 -410 -41
-198 -218 -382 -433 -451 -47 -15 -107 -18 -407 -22 l-353 -4 0 866 0 866 343
0 c307 0 352 -2 420 -19z"/>
<path d="M6940 2669 l0 -661 238 4 c286 5 319 13 415 109 108 109 121 177 115
602 -4 274 -6 296 -27 350 -48 123 -162 219 -289 246 -29 6 -143 11 -252 11
l-200 0 0 -661z m493 587 c60 -23 145 -99 179 -163 15 -27 32 -78 37 -113 14
-84 14 -556 0 -640 -18 -112 -77 -193 -177 -242 l-67 -33 -207 -3 -208 -4 0
612 0 612 198 -4 c156 -4 207 -8 245 -22z"/>
<path d="M8509 3553 c-47 -123 -649 -1785 -649 -1793 0 -6 64 -10 169 -10
l169 0 6 24 c3 13 33 103 67 200 l61 176 318 0 318 0 16 -42 c9 -24 40 -113
70 -198 l53 -155 322 -3 321 -2 2 599 3 598 380 -598 380 -598 148 -1 147 0 0
915 0 915 -160 0 -160 0 -2 -599 -3 -600 -380 599 -380 599 -147 1 -148 0 0
-887 -1 -888 -322 885 -322 885 -133 3 -132 3 -11 -28z m549 -881 c172 -472
312 -862 312 -865 0 -4 -51 -7 -112 -7 l-113 0 -69 200 -68 200 -358 0 -357 0
-68 -200 -67 -200 -115 0 c-88 0 -114 3 -111 13 3 6 144 396 314 865 l309 852
96 0 96 0 311 -858z m1035 228 c332 -522 402 -626 422 -628 l25 -3 0 630 0
631 110 0 110 0 0 -865 0 -865 -107 0 -108 1 -401 632 c-306 482 -406 633
-422 635 l-22 3 0 -635 0 -636 -110 0 -110 0 0 865 0 866 107 -3 107 -3 399
-625z"/>
<path d="M8496 2813 c-75 -224 -136 -411 -136 -416 0 -4 131 -7 290 -7 226 0
290 3 290 13 0 7 -60 192 -133 412 -115 344 -136 400 -154 403 -19 3 -33 -33
-157 -405z m374 -365 c0 -5 -99 -8 -220 -8 -121 0 -220 3 -220 8 0 7 204 623
216 652 5 12 223 -623 224 -652z"/>
<path d="M10990 2665 l0 -915 160 0 160 0 0 915 0 915 -160 0 -160 0 0 -915z
m270 0 l0 -865 -110 0 -110 0 0 865 0 865 110 0 110 0 0 -865z"/>
<path d="M11480 2665 l0 -915 595 0 595 0 0 155 0 155 -435 0 -435 0 0 235 0
235 370 0 370 0 0 145 0 145 -370 0 -370 0 0 230 0 230 435 0 435 0 0 150 0
150 -595 0 -595 0 0 -915z m1140 765 l0 -100 -435 0 -435 0 0 -280 0 -280 370
0 370 0 0 -95 0 -95 -370 0 -370 0 0 -285 0 -285 435 0 435 0 0 -105 0 -105
-545 0 -545 0 0 865 0 865 545 0 545 0 0 -100z"/>
<path d="M12720 2665 l0 -915 595 0 595 0 0 155 0 155 -435 0 -435 0 0 760 0
760 -160 0 -160 0 0 -915z m270 105 l0 -760 435 0 435 0 0 -105 0 -105 -545 0
-545 0 0 865 0 865 110 0 110 0 0 -760z"/>
<path d="M4883 1383 c-30 -6 -53 -40 -53 -80 0 -23 -5 -33 -15 -33 -9 0 -15
-9 -15 -25 0 -16 6 -25 15 -25 12 0 15 -19 15 -115 l0 -115 35 0 35 0 0 115 0
115 25 0 c20 0 25 5 25 25 0 20 -5 25 -25 25 -20 0 -25 5 -25 25 0 20 5 25 25
25 22 0 25 4 25 35 0 37 -7 40 -67 28z"/>
<path d="M5600 1191 l0 -201 35 0 35 0 0 80 0 80 33 0 c31 0 35 -4 72 -80 l39
-80 43 0 43 0 -46 84 -45 85 24 16 c63 41 62 150 -2 192 -18 12 -55 18 -128
21 l-103 5 0 -202z"/>
<path d="M6210 1206 c0 -206 3 -216 66 -216 31 0 34 3 34 29 0 20 -6 30 -20
34 -19 5 -20 14 -20 171 l0 166 -30 0 -30 0 0 -184z"/>
<path d="M6350 1207 c0 -205 4 -217 68 -217 29 0 32 3 32 29 0 20 -6 30 -20
34 -19 5 -20 14 -20 171 l0 166 -30 0 -30 0 0 -183z"/>
<path d="M6929 1369 c-59 -35 -69 -62 -69 -189 l0 -112 38 -38 c47 -47 100
-59 160 -35 39 16 82 65 82 94 0 21 -61 12 -92 -14 -37 -31 -62 -32 -93 0 -23
22 -25 32 -25 110 0 78 2 88 25 110 33 34 67 32 98 -5 18 -21 35 -30 56 -30
38 0 40 18 9 67 -38 62 -122 80 -189 42z"/>
<path d="M5044 1273 c-12 -2 -34 -17 -50 -34 -23 -24 -29 -40 -32 -93 -3 -46
1 -73 13 -99 40 -85 169 -87 208 -4 33 68 15 184 -32 214 -22 14 -78 23 -107
16z"/>
<path d="M5357 1273 c-4 -3 -29 -5 -57 -4 l-50 1 0 -140 0 -140 35 0 35 0 0
99 c0 110 9 128 56 117 20 -5 33 -1 50 15 31 29 30 35 -7 48 -37 13 -53 14
-62 4z"/>
<path d="M5964 1266 c-44 -19 -47 -30 -19 -56 20 -18 28 -21 37 -12 16 16 71
15 86 0 26 -26 13 -38 -39 -38 -78 0 -118 -29 -119 -85 0 -17 7 -40 15 -52 20
-28 84 -48 122 -38 15 4 43 7 61 6 l32 -3 0 114 c0 130 -9 151 -68 168 -48 13
-70 12 -108 -4z"/>
<path d="M7223 1266 c-44 -20 -63 -62 -63 -138 0 -79 23 -121 75 -138 104 -34
181 53 160 181 -14 83 -97 129 -172 95z"/>
<path d="M7557 1273 c-4 -3 -29 -5 -57 -4 l-50 1 0 -140 0 -140 35 0 35 0 0
99 c0 106 8 125 52 119 34 -5 48 -44 48 -135 l0 -83 30 0 30 0 0 88 c0 94 14
132 50 132 40 0 50 -26 50 -126 l0 -94 36 0 36 0 -4 114 c-3 105 -5 117 -27
140 -32 33 -78 42 -124 22 -32 -13 -40 -13 -64 -1 -30 16 -65 19 -76 8z"/>
<path d="M8008 1266 c-16 -8 -28 -11 -28 -5 0 5 -13 9 -30 9 l-30 0 0 -140 0
-140 30 0 30 0 0 83 c0 91 14 130 48 135 44 6 52 -13 52 -119 l0 -99 35 0 35
0 0 93 c0 78 3 97 18 110 23 21 46 22 66 1 12 -12 16 -37 16 -110 l0 -94 36 0
36 0 -3 114 c-4 103 -6 117 -27 139 -31 33 -81 42 -126 23 -31 -13 -39 -13
-63 -1 -35 19 -61 19 -95 1z"/>
<path d="M8562 1269 c-24 -7 -37 -19 -48 -45 -28 -66 2 -110 85 -123 62 -10
79 -22 56 -41 -21 -18 -71 -15 -102 5 -24 16 -26 16 -50 -8 l-25 -24 34 -21
c67 -41 170 -36 203 11 41 58 0 137 -73 137 -44 0 -79 21 -67 39 7 13 55 11
100 -3 14 -4 25 1 38 19 l18 25 -43 20 c-47 21 -75 23 -126 9z"/>
<path d="M8836 1270 c-46 -15 -66 -39 -66 -82 0 -47 25 -75 77 -83 78 -13 84
-15 81 -33 -5 -24 -81 -29 -115 -7 -24 16 -26 16 -46 -3 -26 -27 -13 -44 48
-68 70 -26 155 -2 175 51 22 59 -22 115 -91 115 -40 0 -70 17 -63 35 7 18 66
20 94 3 15 -10 23 -9 39 6 27 24 26 30 -3 50 -31 20 -93 28 -130 16z"/>
<path d="M9244 1273 c-12 -2 -34 -18 -50 -34 -27 -28 -29 -36 -29 -109 0 -73
2 -81 29 -109 35 -37 81 -47 131 -31 52 17 75 59 75 139 0 113 -55 164 -156
144z"/>
<path d="M9557 1273 c-4 -3 -29 -5 -57 -4 l-50 1 0 -140 0 -140 35 0 34 0 3
102 c3 102 3 103 31 112 47 17 61 -9 65 -119 l4 -95 29 0 29 0 0 110 c0 124
-10 151 -62 169 -36 13 -52 14 -61 4z"/>
<path d="M9811 1267 c-55 -19 -76 -57 -76 -137 0 -82 21 -118 81 -138 48 -16
96 -8 130 21 l26 23 -26 17 c-20 13 -31 15 -45 7 -29 -15 -67 -12 -85 6 -29
28 -17 34 69 34 l85 0 0 45 c0 24 -5 55 -12 69 -22 50 -89 74 -147 53z"/>
<path d="M10127 1273 c-4 -3 -29 -5 -57 -4 l-50 1 0 -140 0 -140 35 0 35 0 0
100 c0 91 2 100 21 111 12 6 31 8 42 5 14 -3 30 2 44 16 30 28 29 34 -8 47
-37 13 -53 14 -62 4z"/>
<path d="M6450 1266 c0 -2 22 -63 49 -136 54 -144 55 -171 6 -190 -19 -7 -25
-17 -25 -41 0 -31 1 -31 38 -26 20 4 44 15 53 26 13 16 56 128 137 359 3 8 -7
12 -31 12 -34 0 -35 -1 -62 -77 -15 -43 -30 -81 -34 -85 -4 -5 -19 30 -35 77
-27 85 -27 85 -62 85 -19 0 -34 -2 -34 -4z"/>
<path d="M8380 1130 l0 -140 35 0 35 0 0 140 0 140 -35 0 -35 0 0 -140z"/>
<path d="M9040 1130 l0 -140 35 0 35 0 0 140 0 140 -35 0 -35 0 0 -140z"/>
</g>
</svg>
